<?xml version="1.0" encoding="utf-8"?>
<!-- Generator: Adobe Illustrator 26.3.1, SVG Export Plug-In . SVG Version: 6.00 Build 0)  -->
<svg version="1.1" id="Layer_1" xmlns="http://www.w3.org/2000/svg" xmlns:xlink="http://www.w3.org/1999/xlink" x="0px" y="0px"
	 viewBox="0 0 600 137.73" style="enable-background:new 0 0 600 137.73;" xml:space="preserve">
<style type="text/css">
	.st0{fill: #fcd826;}
</style>
<path class="st0" d="M1.4,69.88c-0.8,0-1.4-0.6-1.4-1.4V1.4C0,0.6,0.6,0,1.4,0h22.16c0.8,0,1.4,0.6,1.4,1.4v6.19
	c0,0.8-0.6,1.4-1.4,1.4H9.98v20.47h10.78c0.8,0,1.4,0.6,1.4,1.4v6.19c0,0.8-0.6,1.4-1.4,1.4H9.98v30.05c0,0.8-0.6,1.4-1.4,1.4H1.4z"
	/>
<path class="st0" d="M59.4,11.48c0-1.1-1.1-2.3-2.3-2.5c-0.6-0.1-1.2-0.8-1.2-1.4V1.4c0-0.8,0.6-1.4,1.4-1.4h2.1
	c2.89,0,5.09,1,6.99,2.9c2,1.8,3,4.29,3,7.09V59.9c0,2.9-1,5.09-2.89,6.99c-1.8,2-4.29,2.99-7.09,2.99h-2.1c-0.8,0-1.4-0.6-1.4-1.4
	V62.3c0-0.7,0.6-1.3,1.3-1.4c1.3-0.1,2.2-1.3,2.2-2.5V11.48z M48.42,0h2c0.8,0,1.4,0.6,1.4,1.4v6.29c0,0.6-0.6,1.3-1.2,1.4
	c-1.2,0.2-2.2,1.3-2.2,2.4V58.4c0,1.2,1,2.3,2.2,2.5c0.6,0.1,1.2,0.8,1.2,1.4v6.19c0,0.8-0.6,1.4-1.4,1.4h-2
	c-2.8,0-5.29-1.2-7.09-2.99c-1.9-1.9-2.9-4.19-2.9-6.99V9.98c0-2.79,1-5.09,2.9-6.99C43.13,1.2,45.63,0,48.42,0"/>
<path class="st0" d="M106.42,69.88c-0.8,0-1.4-0.6-1.4-1.4V62.3c0-0.6,0.6-1.3,1.2-1.4c1.1-0.2,2.2-1.2,2.2-2.4V1.4
	c0-0.8,0.6-1.4,1.4-1.4h7.19c0.8,0,1.4,0.6,1.4,1.4v58.5c0,2.9-1,5.09-2.9,6.99c-1.8,2-4.29,2.99-7.09,2.99H106.42z M99.64,60.9
	c0.7,0.1,1.3,0.7,1.3,1.4v6.19c0,0.8-0.6,1.4-1.4,1.4h-2.1c-2.79,0-5.29-1.2-7.09-2.99c-1.9-1.9-2.9-4.19-2.9-6.99V1.4
	c0-0.8,0.6-1.4,1.4-1.4h7.19c0.8,0,1.4,0.6,1.4,1.4V58.4C97.44,59.6,98.44,60.8,99.64,60.9"/>
<path class="st0" d="M171.61,49.42c0,1.5-2.2,1.9-2.7,0.5l-6.59-20.37l-0.7-8.19V1.4c0-0.8,0.6-1.4,1.4-1.4h7.19
	c0.8,0,1.4,0.6,1.4,1.4V49.42z M170.92,67.99c0.3,1-0.3,1.9-1.3,1.9h-6.99c-0.5,0-1.1-0.4-1.3-0.9L138.27,1.9
	c-0.3-1,0.3-1.9,1.3-1.9h6.99c0.5,0,1.1,0.4,1.3,0.9L170.92,67.99z M138.97,69.88c-0.8,0-1.4-0.6-1.4-1.4V20.77
	c0-1.5,2.2-1.9,2.7-0.5l6.59,20.47l0.7,11.08v16.67c0,0.8-0.6,1.4-1.4,1.4H138.97z"/>
<path class="st0" d="M212.15,11.48c0-1.3-1.2-2.5-2.5-2.5h-2.99c-0.8,0-1.4-0.6-1.4-1.4V1.4c0-0.8,0.6-1.4,1.4-1.4h5.49
	c2.7,0,5.39,1.1,7.19,3.09c1.6,1.7,2.8,4.09,2.8,6.89V59.9c0,3.09-1.2,5.69-3.19,7.49c-1.7,1.5-4.29,2.49-6.79,2.49h-5.49
	c-0.8,0-1.4-0.6-1.4-1.4V62.3c0-0.8,0.6-1.4,1.4-1.4h2.99c1.3,0,2.5-1.2,2.5-2.5V11.48z M191.18,1.4c0-0.8,0.6-1.4,1.4-1.4h7.19
	c0.8,0,1.4,0.6,1.4,1.4v67.09c0,0.8-0.6,1.4-1.4,1.4h-7.19c-0.8,0-1.4-0.6-1.4-1.4V1.4z"/>
<path class="st0" d="M242,69.88c-0.8,0-1.4-0.6-1.4-1.4V1.4c0-0.8,0.6-1.4,1.4-1.4h22.16c0.8,0,1.4,0.6,1.4,1.4v6.19
	c0,0.8-0.6,1.4-1.4,1.4h-13.58v20.47h10.78c0.8,0,1.4,0.6,1.4,1.4v6.19c0,0.8-0.6,1.4-1.4,1.4h-10.78V60.9h13.58
	c0.8,0,1.4,0.6,1.4,1.4v6.19c0,0.8-0.6,1.4-1.4,1.4H242z"/>
<path class="st0" d="M302.5,26.86V11.48c0-1.3-1.2-2.5-2.5-2.5h-2.99c-0.8,0-1.4-0.6-1.4-1.4V1.4c0-0.8,0.6-1.4,1.4-1.4h5.59
	c2.7,0,5.19,1.2,6.99,2.89c1.9,1.9,2.9,4.29,2.9,7.09v16.87c0,2.99-1.2,5.29-2.8,6.99c-0.8,0.8-1.9,1.5-3.69,2.2l8.69,32.05
	c0.2,0.9-0.3,1.8-1.3,1.8h-7.39c-0.6,0-1.2-0.5-1.4-1.1l-8.98-33.54v-4.39c0-0.8,0.6-1.4,1.4-1.4h2.89
	C301.2,29.45,302.4,28.25,302.5,26.86 M281.53,1.4c0-0.8,0.6-1.4,1.4-1.4h7.19c0.8,0,1.4,0.6,1.4,1.4v67.09c0,0.8-0.6,1.4-1.4,1.4
	h-7.19c-0.8,0-1.4-0.6-1.4-1.4V1.4z"/>
<path class="st0" d="M348.02,9.09c-0.6-0.1-1.2-0.8-1.2-1.4V1.4c0-0.8,0.6-1.4,1.4-1.4h2c2.8,0,5.29,1.2,7.09,2.99
	c1.9,1.9,2.9,4.19,2.9,6.99v8.59c0,0.8-0.6,1.4-1.4,1.4h-7.19c-0.8,0-1.4-0.6-1.4-1.4v-7.09C350.22,10.38,349.22,9.28,348.02,9.09
	 M341.43,60.9c0.7,0.1,1.3,0.7,1.3,1.4v6.19c0,0.8-0.6,1.4-1.4,1.4h-2.1c-2.89,0-5.09-1-6.99-2.89c-2-1.8-2.99-4.29-2.99-7.09v-8.59
	c0-0.8,0.6-1.4,1.4-1.4h7.19c0.8,0,1.4,0.6,1.4,1.4v7.09C339.23,59.6,340.13,60.8,341.43,60.9 M348.22,69.88c-0.8,0-1.4-0.6-1.4-1.4
	V62.3c0-0.6,0.6-1.3,1.2-1.4c1.2-0.2,2.2-1.3,2.2-2.5V46.82c0-2.3-1.4-4.19-2.5-4.89l-8.59-5.69c-4.99-3.29-9.88-6.99-9.88-13.68
	V9.98c0-2.79,1-5.29,2.99-7.09c1.9-1.9,4.09-2.9,6.99-2.9h2.1c0.8,0,1.4,0.6,1.4,1.4v6.19c0,0.7-0.6,1.3-1.2,1.4
	c-1.2,0.2-2.3,1.4-2.3,2.5v9.48c0,2.5,1.3,4.19,2.4,4.89l8.39,5.39c5.39,3.49,10.18,7.29,10.18,14.18V59.9c0,2.8-1,5.09-2.9,6.99
	c-1.8,1.8-4.29,2.99-7.09,2.99H348.22z"/>
<path class="st0" d="M419.5,26.86V11.48c0-1.3-1.2-2.5-2.5-2.5h-2.99c-0.8,0-1.4-0.6-1.4-1.4V1.4c0-0.8,0.6-1.4,1.4-1.4h5.59
	c2.69,0,5.19,1.2,6.99,2.9c1.9,1.9,2.9,4.29,2.9,7.09v18.47c0,2.9-1.2,5.29-2.9,7.09c-1.8,1.7-4.29,2.89-7.09,2.89h-5.49
	c-0.8,0-1.4-0.6-1.4-1.4v-6.19c0-0.8,0.6-1.4,1.4-1.4h2.9C418.2,29.45,419.4,28.25,419.5,26.86 M399.93,69.88
	c-0.8,0-1.4-0.6-1.4-1.4V1.4c0-0.8,0.6-1.4,1.4-1.4h7.19c0.8,0,1.4,0.6,1.4,1.4v67.09c0,0.8-0.6,1.4-1.4,1.4H399.93z"/>
<path class="st0" d="M446.16,69.88c-0.8,0-1.4-0.6-1.4-1.4V1.4c0-0.8,0.6-1.4,1.4-1.4h7.19c0.8,0,1.4,0.6,1.4,1.4v59.5h13.58
	c0.8,0,1.4,0.6,1.4,1.4v6.19c0,0.8-0.6,1.4-1.4,1.4H446.16z"/>
<path class="st0" d="M500.47,36.94L496.37,1.6c-0.1-0.9,0.5-1.6,1.4-1.6h4.29c0.6,0,1.4,0.6,1.4,1.2l5.89,33.54l5.99,33.54
	c0.2,0.9-0.5,1.6-1.4,1.6h-7.39c-0.7,0-1.3-0.6-1.4-1.2L500.47,36.94z M481.6,69.88c-0.9,0-1.6-0.7-1.4-1.6l10.18-57.9
	c0.3-1.5,2.6-1.5,2.8,0c0.6,5.19,0.9,7.89,2.6,20.87l-2.7,18.67h3.59c0.7,0,1.3,0.6,1.4,1.3l0.8,6.09c0.1,0.9-0.5,1.6-1.4,1.6h-5.69
	l-1.4,9.78c-0.1,0.7-0.7,1.2-1.4,1.2H481.6z"/>
<path class="st0" d="M547.39,69.88c-0.8,0-1.4-0.6-1.4-1.4V62.3c0-0.7,0.5-1.3,1.2-1.4c1.2-0.2,2.3-1.3,2.3-2.5v-7.09
	c0-0.8,0.6-1.4,1.4-1.4h7.19c0.8,0,1.4,0.6,1.4,1.4v8.59c0,2.7-1.1,5.39-3.09,7.19c-1.7,1.6-4.09,2.8-6.89,2.8H547.39z M547.19,8.99
	c-0.6-0.1-1.2-0.8-1.2-1.4V1.4c0-0.8,0.6-1.4,1.4-1.4h2.1c2.7,0,5.39,1.1,7.19,3.1c1.6,1.7,2.79,4.09,2.79,6.89v8.59
	c0,0.8-0.6,1.4-1.4,1.4h-7.19c-0.8,0-1.4-0.6-1.4-1.4v-7.09C549.48,10.38,548.38,9.19,547.19,8.99 M540.7,60.9
	c0.6,0.1,1.2,0.8,1.2,1.4v6.19c0,0.8-0.6,1.4-1.4,1.4h-2c-2.7,0-4.99-1.1-6.79-2.7c-2-1.8-3.19-4.49-3.19-7.29V9.98
	c0-2.8,1.2-5.19,2.8-6.89c1.8-2,4.49-3.1,7.19-3.1h2c0.8,0,1.4,0.6,1.4,1.4v6.29c0,0.6-0.6,1.3-1.2,1.4c-1.2,0.2-2.2,1.3-2.2,2.4
	V58.4C538.5,59.6,539.5,60.7,540.7,60.9"/>
<path class="st0" d="M576.44,69.88c-0.8,0-1.4-0.6-1.4-1.4V1.4c0-0.8,0.6-1.4,1.4-1.4h22.16c0.8,0,1.4,0.6,1.4,1.4v6.19
	c0,0.8-0.6,1.4-1.4,1.4h-13.58v20.47h10.78c0.8,0,1.4,0.6,1.4,1.4v6.19c0,0.8-0.6,1.4-1.4,1.4h-10.78V60.9h13.58
	c0.8,0,1.4,0.6,1.4,1.4v6.19c0,0.8-0.6,1.4-1.4,1.4H576.44z"/>
<polygon class="st0" points="96.44,137.49 88.74,112.12 87.24,106.92 86.95,106.92 87.15,124.69 87.15,137.49 84.79,137.49
	84.79,103.8 88.35,103.8 96,129.16 97.5,134.36 97.83,134.36 97.59,120.21 97.59,103.8 99.95,103.8 99.95,137.49 "/>
<polygon class="st0" points="112.85,137.49 112.85,103.8 123.44,103.8 123.44,105.91 115.21,105.91 115.21,119.1 122.09,119.1
	122.09,121.22 115.21,121.22 115.21,135.42 123.44,135.42 123.44,137.49 "/>
<polygon class="st0" points="148.76,137.49 145.25,111.93 144.72,106.83 144.43,106.83 143.99,111.93 140.58,137.49 137.4,137.49
	132.2,103.8 134.66,103.8 138.27,129.5 138.84,134.55 139.13,134.55 139.76,129.5 143.03,103.8 146.21,103.8 149.58,129.5
	150.25,134.55 150.54,134.55 151.07,129.5 154.68,103.8 157.09,103.8 151.89,137.49 "/>
<path class="st0" d="M172.97,137.73c-2.41,0-3.66-0.58-4.53-1.4c-0.91-0.87-1.49-2.02-1.49-4.19v-23.01c0-2.17,0.53-3.18,1.35-4.04
	c0.87-0.91,2.21-1.54,4.67-1.54h1.35c2.45,0,3.9,0.63,4.77,1.54c0.82,0.87,1.35,1.88,1.35,4.04v3.66h-2.36v-3.85
	c0-2.02-1.2-3.32-4.04-3.32h-0.72c-2.79,0-4,1.25-4,3.32v23.39c0,2.07,1.2,3.32,4,3.32h0.72c2.79,0,4.04-1.2,4.04-3.32v-3.8h2.36
	v3.61c0,2.17-0.58,3.32-1.49,4.19c-0.87,0.82-2.12,1.4-4.62,1.4H172.97z"/>
<path class="st0" d="M198.19,111.45l-0.72-5.1h-0.29l-0.62,5.1l-2.89,16.41h7.32L198.19,111.45z M202.67,137.49l-1.3-7.51h-8.04
	l-1.3,7.51h-2.5l6.26-33.69h3.18l6.21,33.69H202.67z"/>
<path class="st0" d="M220.43,137.73c-2.5,0-3.71-0.58-4.57-1.4c-0.91-0.87-1.49-2.02-1.49-4.19v-3.61h2.36v3.8
	c0,2.07,1.25,3.32,4,3.32h0.77c2.74,0,3.99-1.25,3.99-3.32v-4.72c0-3.08-1.06-3.99-3.61-5.68l-2.98-1.97
	c-2.74-1.78-4.33-3.47-4.33-6.79v-4.04c0-2.17,0.53-3.18,1.35-4.04c0.87-0.91,2.21-1.54,4.72-1.54h1.35c2.26,0,3.61,0.63,4.52,1.54
	c0.82,0.87,1.35,1.88,1.35,4.04v3.66h-2.36v-3.85c0-2.07-1.25-3.32-3.8-3.32h-0.77c-2.79,0-3.99,1.25-3.99,3.32v3.42
	c0,3.37,1.11,4.19,3.37,5.68l3.03,1.93c2.6,1.73,4.53,3.47,4.53,6.84v5.34c0,2.17-0.58,3.27-1.49,4.14
	c-0.87,0.87-2.07,1.44-4.57,1.44H220.43z"/>
<polygon class="st0" points="242.33,137.49 242.33,105.91 236.89,105.91 236.89,103.8 250.18,103.8 250.18,105.91 244.69,105.91
	244.69,137.49 "/>
<polygon class="st0" points="260.28,137.49 260.28,103.8 262.64,103.8 262.64,135.42 270.87,135.42 270.87,137.49 "/>
<polygon class="st0" points="280.74,137.49 280.74,103.8 291.33,103.8 291.33,105.91 283.1,105.91 283.1,119.1 289.98,119.1
	289.98,121.22 283.1,121.22 283.1,135.42 291.33,135.42 291.33,137.49 "/>
<path class="st0" d="M321.32,137.73c-2.46,0-3.66-0.58-4.57-1.44c-0.87-0.87-1.44-1.97-1.44-4.14V103.8h2.36v28.54
	c0,2.07,1.2,3.32,4,3.32h0.72c2.79,0,4.04-1.2,4.04-3.27V103.8h2.36v28.35c0,2.17-0.58,3.27-1.49,4.14
	c-0.87,0.87-2.07,1.44-4.62,1.44H321.32z"/>
<path class="st0" d="M352.61,109.14c0-2.07-1.3-3.22-3.37-3.22h-5.39v13.77h5.39c2.07,0,3.37-1.15,3.37-3.22V109.14z M341.49,137.49
	V103.8h8.47c1.35,0,2.74,0.58,3.66,1.49c0.82,0.87,1.35,1.88,1.35,4.04v6.93c0,2.12-0.58,3.27-1.49,4.19
	c-0.87,0.82-2.21,1.35-3.51,1.35h-6.11v15.69H341.49z"/>
<path class="st0" d="M376.43,108.95c0-2.02-1.2-3.32-4.04-3.32h-0.72c-2.79,0-4,1.25-4,3.32v23.39c0,2.07,1.2,3.32,4,3.32h0.72
	c2.84,0,4.04-1.2,4.04-3.32V108.95z M371.33,137.73c-2.46,0-3.66-0.58-4.57-1.44c-0.87-0.87-1.44-1.97-1.44-4.14v-23.01
	c0-2.17,0.53-3.18,1.35-4.04c0.87-0.91,2.21-1.54,4.67-1.54h1.35c2.45,0,3.85,0.63,4.72,1.54c0.87,0.87,1.4,1.88,1.4,4.04v23.01
	c0,2.17-0.58,3.27-1.49,4.14c-0.87,0.87-2.07,1.44-4.62,1.44H371.33z"/>
<polygon class="st0" points="402.81,137.49 395.11,112.12 393.61,106.92 393.33,106.92 393.52,124.69 393.52,137.49 391.16,137.49
	391.16,103.8 394.72,103.8 402.38,129.16 403.87,134.36 404.2,134.36 403.96,120.21 403.96,103.8 406.32,103.8 406.32,137.49 "/>
<polygon class="st0" points="434.87,137.49 434.87,105.91 429.43,105.91 429.43,103.8 442.71,103.8 442.71,105.91 437.22,105.91
	437.22,137.49 "/>
<polygon class="st0" points="456.24,137.49 456.24,122.33 449.4,103.8 451.81,103.8 456.24,116.21 457.3,119.3 457.59,119.3
	458.64,116.21 463.12,103.8 465.43,103.8 458.6,122.33 458.6,137.49 "/>
<polygon class="st0" points="486.56,137.49 478.86,112.12 477.37,106.92 477.08,106.92 477.27,124.69 477.27,137.49 474.91,137.49
	474.91,103.8 478.47,103.8 486.13,129.16 487.62,134.36 487.96,134.36 487.72,120.21 487.72,103.8 490.07,103.8 490.07,137.49 "/>
<polygon class="st0" points="502.98,137.49 502.98,103.8 513.56,103.8 513.56,105.91 505.33,105.91 505.33,119.1 512.22,119.1
	512.22,121.22 505.33,121.22 505.33,135.42 513.56,135.42 513.56,137.49 "/>
</svg>
