<?xml version="1.0" encoding="utf-8"?>
<!-- Generator: Adobe Illustrator 26.3.1, SVG Export Plug-In . SVG Version: 6.00 Build 0)  -->
<svg version="1.1" id="Layer_1" xmlns="http://www.w3.org/2000/svg" xmlns:xlink="http://www.w3.org/1999/xlink" x="0px" y="0px"
	 viewBox="0 0 275.63 129.63" style="enable-background:new 0 0 275.63 129.63;" xml:space="preserve">
<style type="text/css">
	.st0{fill:#FFFFFF;}
</style>
<polygon class="st0" points="154.67,36.03 154.67,12.79 147.16,12.79 148.32,10 164.85,10 163.68,12.79 157.34,12.79 157.34,34.8 
	"/>
<polygon class="st0" points="167.79,36.03 167.79,10.87 170.46,9.65 170.46,21.45 180.17,21.45 180.17,10.87 182.84,9.65 
	182.84,34.8 180.17,36.03 180.17,24.24 170.46,24.24 170.46,34.8 "/>
<polygon class="st0" points="190,24.24 190,32.89 201.88,32.89 200.71,35.68 187.33,35.68 187.33,11.2 190,9.98 199.71,10 
	198.54,12.79 190,12.79 190,21.45 199.71,21.45 198.54,24.24 "/>
<path class="st0" d="M149.82,53.05v10.16h4.94c1.32,0,2.46-0.49,3.4-1.49c0.95-0.99,1.42-2.19,1.42-3.59c0-1.39-0.47-2.58-1.42-3.58
	c-0.94-1-2.08-1.5-3.4-1.5H149.82z M147.15,76.28V51.12l2.67-0.87h4.89c2.06,0,3.81,0.77,5.24,2.31c1.46,1.55,2.19,3.4,2.19,5.57
	c0,2.19-0.72,4.04-2.17,5.57c-1.46,1.54-3.21,2.31-5.26,2.31h-4.89v9.06L147.15,76.28z"/>
<path class="st0" d="M168.43,61.71h9.71v-4.09c-0.01-1.4-0.49-2.58-1.44-3.56c-0.96-0.99-2.1-1.48-3.42-1.48
	c-1.33,0-2.48,0.49-3.44,1.48c-0.94,0.98-1.42,2.15-1.42,3.51v0.05V61.71z M165.76,76.28V57.67c0-2.14,0.73-3.97,2.2-5.49
	c1.47-1.52,3.24-2.28,5.32-2.28c2.08,0,3.86,0.76,5.33,2.28c1.47,1.52,2.2,3.35,2.2,5.49v17.39l-2.67,1.22V64.5h-9.71v10.56
	L165.76,76.28z"/>
<polygon class="st0" points="190.79,76.28 190.79,53.05 183.28,53.05 184.45,50.25 200.97,50.25 199.8,53.05 193.46,53.05 
	193.46,75.06 "/>
<polygon class="st0" points="210.41,76.28 210.41,53.05 202.9,53.05 204.07,50.25 220.6,50.25 219.43,53.05 213.08,53.05 
	213.08,75.06 "/>
<polygon class="st0" points="226.74,64.5 226.74,73.14 238.62,73.14 237.45,75.93 224.07,75.93 224.07,51.46 226.74,50.23 
	236.45,50.25 235.28,53.05 226.74,53.05 226.74,61.71 236.45,61.71 235.28,64.5 "/>
<path class="st0" d="M244.48,53.05v10.16h4.94c1.32,0,2.46-0.49,3.4-1.49c0.95-0.99,1.42-2.19,1.42-3.59c0-1.39-0.47-2.58-1.42-3.58
	c-0.94-1-2.08-1.5-3.4-1.5H244.48z M241.81,76.28V51.12l2.67-0.87h4.89c2.06,0,3.81,0.77,5.24,2.31c1.46,1.55,2.18,3.4,2.18,5.57
	c0,2.19-0.72,4.04-2.16,5.57c-0.66,0.71-1.4,1.25-2.2,1.64l4.56,9.73l-2.69,1.22L249.73,66h-0.35h-4.89v9.06L241.81,76.28z"/>
<path class="st0" d="M260.57,76.28V57.67c0-2.14,0.73-3.97,2.2-5.49c1.47-1.52,3.24-2.28,5.32-2.28c2.08,0,3.86,0.76,5.33,2.28
	c1.47,1.52,2.2,3.35,2.2,5.49v17.39l-2.67,1.22V57.62c-0.01-1.4-0.49-2.58-1.44-3.56c-0.96-0.99-2.1-1.48-3.42-1.48
	c-1.33,0-2.48,0.49-3.44,1.48c-0.94,0.98-1.42,2.15-1.42,3.51v0.05v17.44L260.57,76.28z"/>
<path class="st0" d="M154.65,100.69c2.17,0.26,3.94,1.08,5.33,2.48c1.47,1.49,2.2,3.32,2.2,5.48v0.05c0,2.21-0.72,4.07-2.17,5.57
	c-1.46,1.51-3.23,2.27-5.33,2.27c-2.11,0-3.89-0.76-5.32-2.27c-1.47-1.56-2.2-3.39-2.2-5.5v-0.23l2.67-1.22v1.5
	c0,1.4,0.48,2.58,1.44,3.56c0.96,0.99,2.1,1.48,3.42,1.48c1.35,0,2.49-0.49,3.44-1.48c0.95-1,1.42-2.19,1.42-3.58
	c0-1.45-0.46-2.64-1.37-3.54c-1.04-1.04-2.18-1.6-3.42-1.69c-2.11-0.17-3.77-0.89-4.97-2.15c-1.24-1.29-1.87-2.85-1.87-4.68
	c0-1.84,0.61-3.39,1.84-4.66c1.22-1.28,2.7-1.92,4.44-1.92c1.76,0,3.25,0.64,4.46,1.92c1.23,1.3,1.85,2.85,1.85,4.64v0.17
	l-2.67,1.26v-1.38c-0.02-1.08-0.38-1.98-1.07-2.69c-0.72-0.74-1.58-1.12-2.57-1.12c-0.99,0-1.83,0.36-2.52,1.08
	c-0.71,0.76-1.07,1.65-1.07,2.69c0,1.03,0.36,1.93,1.07,2.67C152.33,100.11,153.32,100.53,154.65,100.69"/>
<polygon class="st0" points="165.8,116.54 165.8,91.38 168.47,90.16 168.47,101.96 178.18,101.96 178.18,91.38 180.85,90.16 
	180.85,115.31 178.18,116.54 178.18,104.75 168.47,104.75 168.47,115.31 "/>
<path class="st0" d="M187.24,97.88v10.95c0,1.39,0.47,2.57,1.42,3.56c0.94,0.99,2.09,1.49,3.44,1.49c1.32,0,2.46-0.5,3.42-1.49
	c0.94-0.98,1.42-2.16,1.44-3.56V97.88c-0.01-1.4-0.49-2.58-1.44-3.56c-0.96-0.99-2.1-1.48-3.42-1.48c-1.35,0-2.49,0.49-3.44,1.48
	C187.71,95.29,187.24,96.48,187.24,97.88 M199.62,97.93v10.84c0,2.14-0.73,3.97-2.2,5.49c-1.47,1.52-3.24,2.28-5.32,2.28
	c-2.09,0-3.87-0.76-5.33-2.27c-1.47-1.52-2.2-3.36-2.2-5.5V97.93c0-2.14,0.73-3.97,2.2-5.49c1.47-1.52,3.25-2.28,5.33-2.28
	c2.08,0,3.86,0.76,5.32,2.28C198.89,93.96,199.62,95.79,199.62,97.93"/>
<path class="st0" d="M206.06,93.3v10.16H211c1.32,0,2.46-0.49,3.4-1.49c0.95-0.99,1.42-2.19,1.42-3.59c0-1.39-0.47-2.58-1.42-3.58
	c-0.94-1-2.08-1.5-3.4-1.5H206.06z M203.39,116.54V91.38l2.67-0.87h4.89c2.06,0,3.81,0.77,5.24,2.31c1.46,1.55,2.19,3.4,2.19,5.57
	c0,2.19-0.72,4.04-2.17,5.57c-1.46,1.54-3.21,2.31-5.26,2.31h-4.89v9.06L203.39,116.54z"/>
<path class="st0" d="M72.93,47.68c2.31,2.44,3.46,5.36,3.46,8.74c0,3.44-1.16,6.37-3.46,8.78c-2.31,2.41-5.08,3.62-8.32,3.62H52.55
	V44.01h12.07C67.85,44.01,70.62,45.23,72.93,47.68 M52.55,37.19l-6.52,2.13v61.45l6.52-2.99V75.65H64.5c5,0,9.28-1.87,12.84-5.63
	c3.53-3.72,5.3-8.26,5.3-13.6c0-5.29-1.78-9.82-5.34-13.6c-3.51-3.75-7.77-5.63-12.8-5.63H52.55z"/>
<path class="st0" d="M6.73,64.82c0-4.35,0.47-8.59,1.34-12.66l-7.3,2.48C0.27,57.95,0,61.35,0,64.82c0,18.98,7.84,36.09,20.32,47.95
	l6.85-3.13C14.71,99.04,6.73,82.88,6.73,64.82"/>
<path class="st0" d="M105.77,19.01l-7.31,2.48c11.48,10.59,18.74,26.09,18.74,43.33c0,1.26-0.04,2.51-0.12,3.75l6.85-3.13
	c0-0.21,0.01-0.41,0.01-0.62C123.93,46.95,116.99,30.75,105.77,19.01"/>
<path class="st0" d="M61.97,7.04c11.04,0,21.32,3.4,29.96,9.26l7.97-2.7C89.41,5.08,76.24,0,61.97,0C33.83,0,10.01,19.72,2.48,46.64
	l7.98-2.71C18.49,22.37,38.55,7.04,61.97,7.04"/>
<path class="st0" d="M61.97,122.59c-10.36,0-20.05-3-28.35-8.21l-7.37,3.37c10.1,7.48,22.43,11.88,35.72,11.88
	c31.4,0,57.41-24.55,61.43-56.27l-7.38,3.37C110.75,102.89,88.52,122.59,61.97,122.59"/>
</svg>
