<?xml version="1.0" encoding="utf-8"?>
<!-- Generator: Adobe Illustrator 26.3.1, SVG Export Plug-In . SVG Version: 6.00 Build 0)  -->
<svg version="1.1" id="Layer_1" xmlns="http://www.w3.org/2000/svg" xmlns:xlink="http://www.w3.org/1999/xlink" x="0px" y="0px"
	 viewBox="0 0 139.3 285.77" style="enable-background:new 0 0 139.3 285.77;" xml:space="preserve">
<style type="text/css">
	.st0{fill:#FFFFFF;}
</style>
<polygon class="st0" points="47.84,202.31 47.84,178.22 39.7,178.22 40.97,175.33 58.88,175.33 57.62,178.22 50.74,178.22 
	50.74,201.04 "/>
<polygon class="st0" points="62.07,202.31 62.07,176.23 64.97,174.96 64.97,187.2 75.5,187.2 75.5,176.23 78.39,174.96 
	78.39,201.04 75.5,202.31 75.5,190.09 64.97,190.09 64.97,201.04 "/>
<polygon class="st0" points="86.15,190.09 86.15,199.05 99.04,199.05 97.77,201.95 83.26,201.95 83.26,176.57 86.15,175.31 
	96.69,175.33 95.42,178.22 86.15,178.22 86.15,187.2 96.69,187.2 95.42,190.09 "/>
<path class="st0" d="M2.9,219.95v10.53h5.36c1.44,0,2.67-0.51,3.69-1.54c1.02-1.03,1.54-2.27,1.54-3.73c0-1.44-0.51-2.67-1.54-3.71
	c-1.03-1.04-2.26-1.56-3.69-1.56H2.9z M0,244.04v-26.08l2.9-0.91h5.3c2.23,0,4.13,0.8,5.68,2.39c1.58,1.61,2.37,3.53,2.37,5.77
	c0,2.27-0.78,4.19-2.35,5.77c-1.58,1.59-3.48,2.39-5.7,2.39H2.9v9.39L0,244.04z"/>
<path class="st0" d="M23.07,228.93H33.6v-4.23c-0.01-1.45-0.53-2.68-1.56-3.69c-1.04-1.03-2.27-1.54-3.71-1.54
	c-1.45,0-2.69,0.51-3.73,1.54c-1.03,1.01-1.54,2.23-1.54,3.64v0.05V228.93z M20.17,244.04v-19.29c0-2.22,0.8-4.12,2.39-5.69
	c1.59-1.57,3.52-2.36,5.77-2.36s4.18,0.79,5.77,2.36c1.59,1.58,2.39,3.47,2.39,5.69v18.03l-2.9,1.27v-12.22H23.07v10.95
	L20.17,244.04z"/>
<polygon class="st0" points="47.31,244.04 47.31,219.95 39.17,219.95 40.43,217.06 58.35,217.06 57.08,219.95 50.21,219.95 
	50.21,242.77 "/>
<polygon class="st0" points="68.59,244.04 68.59,219.95 60.45,219.95 61.71,217.06 79.63,217.06 78.36,219.95 71.49,219.95 
	71.49,242.77 "/>
<polygon class="st0" points="86.29,231.82 86.29,240.78 99.18,240.78 97.91,243.68 83.39,243.68 83.39,218.3 86.29,217.04 
	96.82,217.06 95.56,219.95 86.29,219.95 86.29,228.93 96.82,228.93 95.56,231.82 "/>
<path class="st0" d="M105.53,219.95v10.53h5.36c1.44,0,2.67-0.51,3.69-1.54c1.02-1.03,1.54-2.27,1.54-3.73
	c0-1.44-0.51-2.67-1.54-3.71c-1.03-1.04-2.26-1.56-3.69-1.56H105.53z M102.64,244.04v-26.08l2.9-0.91h5.3c2.23,0,4.13,0.8,5.68,2.39
	c1.58,1.61,2.37,3.53,2.37,5.77c0,2.27-0.78,4.19-2.35,5.77c-0.72,0.73-1.52,1.3-2.38,1.7l4.95,10.09l-2.91,1.27l-4.98-10.66h-0.38
	h-5.3v9.39L102.64,244.04z"/>
<path class="st0" d="M122.98,244.04v-19.29c0-2.22,0.8-4.12,2.39-5.69c1.59-1.57,3.52-2.36,5.77-2.36s4.18,0.79,5.77,2.36
	c1.59,1.58,2.39,3.47,2.39,5.69v18.03l-2.9,1.27v-19.35c-0.01-1.45-0.53-2.68-1.56-3.69c-1.04-1.03-2.27-1.54-3.71-1.54
	c-1.45,0-2.69,0.51-3.73,1.54c-1.03,1.01-1.54,2.23-1.54,3.64v0.05v18.08L122.98,244.04z"/>
<path class="st0" d="M39.14,269.34c2.35,0.27,4.28,1.12,5.77,2.57c1.59,1.54,2.39,3.44,2.39,5.68v0.05c0,2.29-0.79,4.22-2.35,5.77
	c-1.58,1.57-3.51,2.35-5.77,2.35c-2.29,0-4.22-0.78-5.77-2.35c-1.59-1.62-2.39-3.52-2.39-5.7v-0.23l2.9-1.27v1.56
	c0,1.45,0.52,2.68,1.56,3.69c1.04,1.03,2.27,1.54,3.71,1.54c1.46,0,2.7-0.51,3.73-1.54c1.03-1.04,1.54-2.27,1.54-3.71
	c0-1.51-0.49-2.73-1.48-3.67c-1.13-1.07-2.37-1.66-3.71-1.76c-2.29-0.18-4.09-0.92-5.39-2.23c-1.35-1.34-2.03-2.96-2.03-4.85
	c0-1.91,0.66-3.52,1.99-4.83c1.33-1.33,2.93-1.99,4.81-1.99c1.91,0,3.52,0.66,4.83,1.99c1.34,1.35,2.01,2.96,2.01,4.81v0.18
	l-2.9,1.3v-1.43c-0.02-1.12-0.41-2.05-1.16-2.79c-0.78-0.77-1.71-1.16-2.79-1.16s-1.98,0.37-2.73,1.12
	c-0.77,0.78-1.16,1.71-1.16,2.79s0.39,2,1.16,2.77C36.62,268.74,37.7,269.18,39.14,269.34"/>
<polygon class="st0" points="51.22,285.77 51.22,259.69 54.12,258.42 54.12,270.66 64.65,270.66 64.65,259.69 67.55,258.42 
	67.55,284.5 64.65,285.77 64.65,273.55 54.12,273.55 54.12,284.5 "/>
<path class="st0" d="M74.48,266.42v11.35c0,1.44,0.51,2.67,1.54,3.69c1.02,1.02,2.27,1.54,3.73,1.54c1.44,0,2.67-0.51,3.71-1.54
	c1.03-1.01,1.54-2.24,1.56-3.69v-11.35c-0.01-1.45-0.53-2.68-1.56-3.69c-1.04-1.03-2.27-1.54-3.71-1.54c-1.46,0-2.7,0.51-3.73,1.53
	C74.99,263.74,74.48,264.98,74.48,266.42 M87.9,266.48v11.24c0,2.22-0.8,4.12-2.39,5.69c-1.59,1.57-3.52,2.36-5.77,2.36
	c-2.27,0-4.19-0.78-5.77-2.35c-1.59-1.58-2.39-3.48-2.39-5.7v-11.24c0-2.22,0.8-4.12,2.39-5.69c1.59-1.57,3.52-2.36,5.77-2.36
	s4.18,0.79,5.77,2.36C87.11,262.36,87.9,264.26,87.9,266.48"/>
<path class="st0" d="M94.88,261.68v10.53h5.36c1.44,0,2.67-0.51,3.69-1.54c1.02-1.03,1.54-2.27,1.54-3.73
	c0-1.44-0.51-2.67-1.54-3.71c-1.03-1.04-2.26-1.56-3.69-1.56H94.88z M91.98,285.77v-26.08l2.9-0.91h5.3c2.23,0,4.13,0.8,5.68,2.39
	c1.58,1.6,2.37,3.53,2.37,5.77c0,2.27-0.78,4.19-2.35,5.77c-1.58,1.59-3.48,2.39-5.7,2.39h-5.3v9.39L91.98,285.77z"/>
<path class="st0" d="M81.52,49.42c2.51,2.53,3.76,5.55,3.76,9.06c0,3.57-1.25,6.6-3.76,9.11c-2.51,2.5-5.51,3.76-9.02,3.76H59.42
	V45.62h13.08C76.01,45.62,79.02,46.89,81.52,49.42 M59.42,38.55l-7.07,2.21v63.7l7.07-3.09V78.42h12.95
	c5.42,0,10.06-1.95,13.92-5.84c3.83-3.86,5.75-8.56,5.75-14.1c0-5.48-1.93-10.18-5.79-14.1c-3.8-3.89-8.43-5.84-13.88-5.84H59.42z"
	/>
<path class="st0" d="M9.74,67.19c0-4.51,0.5-8.9,1.45-13.13l-7.92,2.57c-0.55,3.44-0.83,6.97-0.83,10.56
	c0,19.68,8.51,37.41,22.03,49.71l7.42-3.24C18.39,102.67,9.74,85.92,9.74,67.19"/>
<path class="st0" d="M117.12,19.71l-7.92,2.57c12.45,10.98,20.32,27.04,20.32,44.91c0,1.3-0.05,2.6-0.13,3.88l7.42-3.24
	c0-0.21,0.01-0.43,0.01-0.64C136.82,48.67,129.29,31.87,117.12,19.71"/>
<path class="st0" d="M69.63,7.3c11.96,0,23.12,3.53,32.48,9.6l8.64-2.8C99.39,5.27,85.11,0,69.63,0C39.12,0,13.3,20.44,5.14,48.35
	l8.66-2.81C22.49,23.19,44.24,7.3,69.63,7.3"/>
<path class="st0" d="M69.63,127.08c-11.23,0-21.75-3.11-30.74-8.51l-8,3.49c10.95,7.76,24.32,12.32,38.73,12.32
	c34.04,0,62.25-25.45,66.6-58.33l-8,3.49C122.53,106.66,98.42,127.08,69.63,127.08"/>
</svg>
