<?xml version="1.0" encoding="utf-8"?>
<!-- Generator: Adobe Illustrator 26.3.1, SVG Export Plug-In . SVG Version: 6.00 Build 0)  -->
<svg version="1.1" id="Layer_1" xmlns="http://www.w3.org/2000/svg" xmlns:xlink="http://www.w3.org/1999/xlink" x="0px" y="0px"
	 viewBox="0 0 354.17 72.28" style="enable-background:new 0 0 354.17 72.28;" xml:space="preserve">
<style type="text/css">
	.st0{fill:#FFFFFF;}
</style>
<path class="st0" d="M335.4,1.24h2.43c2.67,0,9.47,0.61,9.47,8.57c0,5.49-3.3,7.75-5.29,8.48c-0.49,0.07-1.12,0.1-1.8,0.1
	c-1.53,0-3.38-0.12-4.81-0.24V1.24z M330.42,34.68h4.98V18.65c1.22,0.17,3.06,0.36,4.98,0.49l8.16,15.54h5.63l-8.82-16.22
	c3.21-1.07,7.09-3.74,7.09-8.84c0-3.89-2.53-8.94-12.24-8.94h-9.79V34.68z M298.6,34.68h19.16v-0.8c-1.21,0.05-8.5,0.24-9.71,0.24
	h-4.47V17.53h2.91c1.16,0,8.3,0.07,9.71,0.12v-0.8c-1.41,0.05-8.55,0.12-9.71,0.12h-2.91V1.24h4.3c1.21,0,8.48,0.19,9.71,0.24v-0.8
	H298.6V34.68z M266.78,34.68h19.16v-0.8c-1.21,0.05-8.5,0.24-9.71,0.24h-4.47V17.53h2.91c1.17,0,8.31,0.07,9.71,0.12v-0.8
	c-1.41,0.05-8.55,0.12-9.71,0.12h-2.91V1.24h4.3c1.21,0,8.48,0.19,9.71,0.24v-0.8h-18.99V34.68z M249.42,34.68h2.11v-34h-0.82
	c0.02,0.97,0.27,10.18,0.27,15.54v12.05L230.26,0.68h-2.14v34h0.83c-0.02-0.73-0.27-10.18-0.27-15.54V7.26L249.42,34.68z
	 M188.91,15.74c0-8.89,3.5-14.45,9.25-15.15c7.14,0.88,11.44,9.33,11.44,19.09c0,8.94-3.47,14.4-9.25,15.11
	C193.28,33.93,188.91,25.52,188.91,15.74 M199.25,35.36c8.38,0,15.42-8.26,15.42-17.63S207.63,0,199.25,0
	c-8.38,0-15.42,8.35-15.42,17.73S190.87,35.36,199.25,35.36 M165.08,34.68h4.98v-34h-4.98V34.68z M135.48,1.24h2.36
	c2.38,0,9.47,0.53,9.47,9.52c0,4.95-2.23,8.21-5.78,9.47c-0.56,0.02-1.12,0.02-1.63,0.02c-1.6,0-3.01-0.1-4.42-0.34V1.24z
	 M130.5,0.68v34h4.98V20.47c1.92,0.44,4.3,0.66,5.73,0.66c6.73,0,11.27-4.83,11.27-10.73c0-6.12-4.88-9.71-14.3-9.71H130.5z
	 M76.69,34.68h19.16v-0.8c-1.21,0.05-8.5,0.24-9.71,0.24h-4.47V17.53h2.92c1.17,0,8.3,0.07,9.71,0.12v-0.8
	c-1.41,0.05-8.55,0.12-9.71,0.12h-2.92V1.24h4.3c1.21,0,8.48,0.19,9.71,0.24v-0.8H76.69V34.68z M35.95,34.68h4.98V17.53H56.1v17.15
	h4.98v-34H56.1v16.3H40.93V0.68h-4.98V34.68z M0,1.48c1.21-0.02,8.65-0.24,9.33-0.24H9.5v33.44h4.98V1.24c0.95,0,8.11,0.22,9.3,0.24
	v-0.8H0V1.48z"/>
<path class="st0" d="M266.83,71.93h-0.87V64.8h0.87V71.93z M266.45,67.65h3.39v0.82h-3.39V67.65z M266.45,64.8h3.59v0.82h-3.59V64.8
	z M266.45,71.11h3.59v0.82h-3.59V71.11z M260.29,64.8v7.49l-5.4-5.66v5.31h-0.87v-7.49l5.4,5.66V64.8H260.29z M249.16,64.8
	l-2.37,4.05v3.08h-0.86v-3.07l-2.37-4.06h0.97l1.83,3.3l1.84-3.3H249.16z M234.5,64.8h4.53v0.82h-1.83v6.31h-0.87v-6.31h-1.83V64.8z
	 M222.38,64.8v7.49l-5.4-5.66v5.31h-0.86v-7.49l5.4,5.66V64.8H222.38z M203.88,66.91c0.18-0.44,0.43-0.83,0.76-1.16
	c0.33-0.33,0.71-0.59,1.15-0.77c0.44-0.19,0.92-0.28,1.44-0.28c0.52,0,1,0.09,1.44,0.28c0.44,0.19,0.82,0.45,1.15,0.77
	c0.33,0.33,0.58,0.72,0.76,1.16c0.18,0.45,0.27,0.93,0.27,1.45c0,0.52-0.09,1-0.27,1.45c-0.18,0.45-0.43,0.84-0.76,1.17
	c-0.33,0.33-0.71,0.59-1.15,0.77c-0.44,0.19-0.92,0.28-1.44,0.28c-0.52,0-1-0.09-1.44-0.28c-0.44-0.19-0.83-0.45-1.15-0.77
	c-0.33-0.33-0.58-0.72-0.76-1.17s-0.27-0.93-0.27-1.45C203.61,67.84,203.7,67.36,203.88,66.91 M204.88,69.8
	c0.24,0.42,0.56,0.75,0.96,1c0.41,0.24,0.87,0.37,1.39,0.37c0.52,0,0.99-0.12,1.39-0.37c0.4-0.24,0.72-0.58,0.96-1
	c0.24-0.42,0.35-0.9,0.35-1.44c0-0.54-0.12-1.01-0.35-1.43c-0.23-0.42-0.55-0.75-0.96-1c-0.4-0.24-0.87-0.37-1.39-0.37
	c-0.52,0-0.98,0.12-1.39,0.37c-0.41,0.24-0.73,0.58-0.96,1c-0.23,0.42-0.35,0.9-0.35,1.43C204.53,68.9,204.65,69.38,204.88,69.8
	 M194.95,64.8h1.46c0.46,0,0.87,0.09,1.24,0.26c0.36,0.17,0.65,0.42,0.86,0.74s0.32,0.7,0.32,1.14c0,0.43-0.11,0.81-0.32,1.14
	c-0.21,0.32-0.5,0.57-0.86,0.74c-0.36,0.17-0.78,0.26-1.24,0.26h-1.46v-0.81h1.46c0.46,0,0.84-0.11,1.13-0.34
	c0.29-0.22,0.43-0.55,0.43-0.99c0-0.44-0.14-0.77-0.43-0.99c-0.29-0.22-0.66-0.33-1.13-0.33h-1.46V64.8z M195.34,71.93h-0.87V64.8
	h0.87V71.93z M184.85,64.8v4.79c0,0.49,0.13,0.88,0.4,1.18c0.27,0.3,0.65,0.45,1.16,0.45c0.51,0,0.9-0.15,1.16-0.45
	c0.26-0.3,0.4-0.69,0.4-1.18V64.8h0.87v4.79c0,0.35-0.06,0.68-0.17,0.98c-0.11,0.3-0.28,0.56-0.49,0.77
	c-0.21,0.22-0.47,0.39-0.77,0.51c-0.3,0.12-0.63,0.18-1,0.18c-0.37,0-0.7-0.06-1-0.18c-0.3-0.12-0.56-0.29-0.77-0.51
	c-0.21-0.22-0.38-0.48-0.49-0.77c-0.11-0.3-0.17-0.62-0.17-0.98V64.8H184.85z M168.1,71.93h-0.87V64.8h0.87V71.93z M167.71,67.65
	h3.39v0.82h-3.39V67.65z M167.71,64.8h3.6v0.82h-3.6V64.8z M167.71,71.11h3.6v0.82h-3.6V71.11z M159.54,64.8v6.31h2.8v0.82h-3.67
	V64.8H159.54z M149.25,64.8h4.53v0.82h-1.83v6.31h-0.87v-6.31h-1.83V64.8z M141.18,70.52c0.18,0.22,0.38,0.39,0.61,0.51
	c0.22,0.12,0.48,0.18,0.76,0.18c0.38,0,0.69-0.11,0.92-0.32c0.23-0.21,0.35-0.48,0.35-0.8c0-0.32-0.07-0.57-0.22-0.76
	c-0.15-0.19-0.35-0.35-0.59-0.46c-0.24-0.12-0.5-0.23-0.77-0.32c-0.18-0.06-0.37-0.14-0.59-0.24c-0.22-0.1-0.43-0.22-0.62-0.38
	c-0.2-0.15-0.36-0.34-0.48-0.57c-0.13-0.22-0.19-0.5-0.19-0.82c0-0.35,0.09-0.67,0.26-0.95c0.18-0.28,0.42-0.5,0.73-0.66
	c0.31-0.16,0.67-0.24,1.07-0.24c0.39,0,0.72,0.07,1.01,0.22s0.54,0.33,0.74,0.56c0.2,0.23,0.36,0.47,0.48,0.72l-0.74,0.43
	c-0.09-0.18-0.2-0.35-0.34-0.52c-0.14-0.17-0.3-0.31-0.49-0.42c-0.19-0.11-0.43-0.16-0.71-0.16c-0.39,0-0.67,0.09-0.85,0.28
	c-0.18,0.19-0.27,0.4-0.27,0.63c0,0.2,0.05,0.38,0.15,0.54c0.1,0.17,0.27,0.32,0.51,0.47c0.24,0.15,0.57,0.29,0.98,0.43
	c0.19,0.07,0.39,0.16,0.6,0.26c0.21,0.11,0.41,0.25,0.59,0.41c0.18,0.17,0.33,0.37,0.44,0.6c0.11,0.23,0.17,0.51,0.17,0.84
	c0,0.31-0.06,0.59-0.18,0.85c-0.12,0.25-0.28,0.47-0.49,0.64c-0.21,0.18-0.44,0.31-0.7,0.41c-0.26,0.1-0.53,0.14-0.82,0.14
	c-0.39,0-0.75-0.08-1.07-0.25c-0.33-0.17-0.62-0.39-0.87-0.66c-0.25-0.27-0.45-0.57-0.61-0.88l0.69-0.47
	C140.83,70.05,141,70.3,141.18,70.52 M131.15,69.24l-0.08,0.18l-1.06,2.51h-0.97l3.31-7.49l3.31,7.49h-0.97l-1.04-2.44l-0.08-0.2
	l-1.22-2.87L131.15,69.24z M130.79,68.97h3.16l0.31,0.81h-3.77L130.79,68.97z M119.77,69.82c0.25,0.42,0.57,0.75,0.97,0.99
	c0.4,0.24,0.83,0.36,1.3,0.36c0.34,0,0.65-0.04,0.93-0.13c0.28-0.09,0.54-0.21,0.77-0.37c0.23-0.16,0.43-0.34,0.59-0.55v1.14
	c-0.3,0.26-0.62,0.46-0.98,0.59s-0.79,0.19-1.31,0.19c-0.49,0-0.96-0.09-1.39-0.27c-0.43-0.18-0.81-0.43-1.14-0.76
	c-0.33-0.33-0.58-0.72-0.76-1.17c-0.18-0.45-0.27-0.94-0.27-1.47c0-0.53,0.09-1.02,0.27-1.47c0.18-0.45,0.44-0.84,0.76-1.17
	c0.33-0.33,0.7-0.58,1.14-0.76c0.43-0.18,0.9-0.27,1.39-0.27c0.52,0,0.96,0.07,1.31,0.19s0.68,0.33,0.98,0.59v1.14
	c-0.16-0.21-0.36-0.4-0.59-0.56s-0.49-0.28-0.77-0.37c-0.28-0.09-0.59-0.13-0.93-0.13c-0.47,0-0.9,0.12-1.3,0.36
	c-0.4,0.24-0.73,0.57-0.97,0.98c-0.25,0.42-0.37,0.9-0.37,1.46C119.4,68.91,119.52,69.4,119.77,69.82 M113.31,64.8h0.97l-2.8,7.49
	l-2.14-5.54l-2.14,5.54l-2.8-7.49h0.97l1.9,5.25l2.08-5.6l2.12,5.6L113.31,64.8z M96.35,71.93h-0.87V64.8h0.87V71.93z M95.96,67.65
	h3.39v0.82h-3.39V67.65z M95.96,64.8h3.6v0.82h-3.6V64.8z M95.96,71.11h3.6v0.82h-3.6V71.11z M89.8,64.8v7.49l-5.4-5.66v5.31h-0.86
	v-7.49l5.4,5.66V64.8H89.8z"/>
</svg>
